<?xml version="1.0" standalone="no"?>
<!DOCTYPE svg PUBLIC "-//W3C//DTD SVG 20010904//EN"
 "http://www.w3.org/TR/2001/REC-SVG-20010904/DTD/svg10.dtd">
<svg version="1.0" xmlns="http://www.w3.org/2000/svg"
 width="400.000000pt" height="300.000000pt" viewBox="0 0 400.000000 300.000000"
 preserveAspectRatio="xMidYMid meet">
<metadata>
Created by potrace 1.16, written by Peter Selinger 2001-2019
</metadata>
<g transform="translate(0.000000,300.000000) scale(0.100000,-0.100000)"
fill="#000000" stroke="none">
<path d="M2240 2650 c0 -5 -5 -9 -11 -7 -6 1 -35 -64 -64 -147 l-52 -149 -174
-2 c-241 -4 -380 -27 -451 -77 l-28 -19 0 -158 c0 -144 2 -161 20 -184 l21
-26 -21 -21 c-18 -18 -20 -32 -20 -179 0 -129 3 -161 15 -171 8 -7 15 -18 15
-25 0 -7 -7 -18 -15 -25 -12 -10 -15 -42 -15 -169 0 -153 1 -158 24 -180 61
-57 262 -87 536 -78 229 8 346 31 398 79 21 20 22 29 22 175 0 146 -1 155 -22
176 l-23 22 23 22 c21 21 22 30 22 177 l0 154 -28 24 -28 23 28 23 28 24 0
153 0 153 -30 26 c-17 14 -55 33 -85 42 -63 20 -66 28 -39 110 27 82 23 81
185 28 79 -25 149 -49 155 -51 18 -7 58 119 41 129 -17 11 -399 138 -415 138
-6 0 -12 -4 -12 -10z m-56 -360 c102 -15 202 -46 210 -66 3 -9 6 -63 6 -121 0
-96 -1 -105 -17 -98 -164 69 -651 69 -858 1 -20 -7 -20 -4 -17 106 2 62 8 118
14 125 8 11 152 47 218 56 68 9 375 6 444 -3z m-196 -314 l-10 -33 -137 -6
c-75 -3 -162 -11 -193 -17 -46 -9 -63 -8 -93 4 -20 9 -34 20 -31 25 18 29 192
59 353 60 l121 1 -10 -34z m340 -1 c28 -9 52 -20 52 -26 0 -5 -16 -17 -36 -25
-28 -12 -46 -13 -91 -4 -31 5 -72 10 -90 10 -36 0 -38 3 -23 47 l11 30 62 -9
c34 -4 86 -15 115 -23z m-197 -86 c116 -11 212 -33 247 -55 21 -14 22 -21 22
-130 0 -104 -2 -115 -17 -110 -148 57 -721 57 -865 1 -17 -7 -18 2 -18 108 0
85 4 117 14 126 60 50 395 83 617 60z m-280 -321 c-7 -20 -17 -24 -91 -30 -45
-4 -105 -12 -131 -17 -38 -8 -57 -8 -82 2 -32 13 -32 14 -9 26 29 15 179 39
259 40 61 1 62 0 54 -21z m458 -3 c39 -9 71 -20 71 -25 0 -18 -62 -30 -104
-20 -23 5 -94 14 -156 20 -63 6 -116 12 -117 14 -2 2 0 11 3 21 7 16 18 17
119 12 62 -3 144 -13 184 -22z m-27 -93 c125 -34 118 -24 118 -163 0 -93 -3
-119 -12 -115 -30 12 -147 45 -203 58 -40 8 -126 13 -255 12 -200 -1 -217 -3
-407 -60 -23 -6 -23 -6 -23 103 0 127 3 132 90 157 97 28 170 34 395 31 187
-2 232 -5 297 -23z"/>
<path d="M1460 620 l0 -250 85 0 85 0 0 70 c0 62 2 70 19 70 13 0 33 -23 62
-70 l44 -70 195 0 195 0 45 70 c61 94 80 94 80 0 l0 -70 85 0 85 0 0 251 0
252 -168 -5 c-155 -4 -171 -6 -212 -29 -61 -33 -90 -79 -90 -141 0 -63 19
-108 60 -140 l33 -26 -53 -76 c-29 -42 -56 -76 -59 -76 -4 0 -31 35 -60 77
l-52 77 31 24 c43 33 60 72 60 135 0 58 -23 104 -70 139 -35 26 -123 38 -272
38 l-128 0 0 -250z"/>
</g>
</svg>
